<svg viewBox="0 0 152 23" fill="none" xmlns="http://www.w3.org/2000/svg">
<path d="M20.7861 2.72266L18.8525 5.49121C18.208 5.19824 17.4902 4.93457 16.6846 4.68555C15.3223 4.27539 13.3887 3.86523 11.0889 3.86523C7.10449 3.86523 5.625 4.59766 5.625 6.31152C5.625 8.04004 7.22168 8.75781 11.7041 9.46094C17.915 10.3984 21.5625 12.332 21.5625 16.2578C21.5625 20.667 17.4023 22.4395 11.5869 22.4395C7.86621 22.4395 5.18555 21.8242 3.44238 21.209C2.41699 20.8428 1.56738 20.4326 0.878906 19.9785L2.8125 17.21C3.45703 17.5762 4.21875 17.8984 5.09766 18.1768C6.60645 18.6602 8.75977 19.1289 11.5869 19.1289C15.498 19.1289 17.5781 18.4404 17.5781 16.2578C17.5781 14.5146 16.2158 13.6504 10.9863 12.9033C3.64746 11.8486 1.64062 9.49023 1.64062 6.31152C1.64062 3.11816 3.98438 0.554688 11.0889 0.554688C14.502 0.554688 16.9336 1.09668 18.501 1.63867C19.4238 1.96094 20.1855 2.32715 20.7861 2.72266ZM37.6172 4.30469H28.1543V11.7461H37.6172C40.3564 11.7461 41.4404 9.97363 41.4404 8.02539C41.4404 6.07715 40.3564 4.30469 37.6172 4.30469ZM28.1543 22H24.1992V0.994141H37.6172C42.6562 0.994141 45.4248 3.74805 45.4248 8.02539C45.4248 12.3027 42.6562 15.0566 37.6172 15.0566H28.1543V22ZM48.6621 22V0.994141H52.6172V22H48.6621ZM59.5605 11.4971C59.5605 15.8916 62.4463 19.1289 69.0527 19.1289C71.1182 19.1289 72.876 18.7188 74.1211 18.2646C74.8535 18.0156 75.5127 17.7227 76.0986 17.3857L78.0029 20.0664C77.4023 20.5205 76.6699 20.916 75.8057 21.2529C74.3262 21.8535 72.0996 22.4395 69.0527 22.4395C60.0879 22.4395 55.5469 17.8252 55.5469 11.4971C55.5469 5.16895 60.0879 0.554688 69.0527 0.554688C72.085 0.554688 74.3262 1.15527 75.8057 1.74121C76.6699 2.09277 77.4023 2.48828 78.0029 2.92773L76.0986 5.6084C75.5127 5.28613 74.8535 4.99316 74.1211 4.74414C72.876 4.29004 71.1182 3.86523 69.0527 3.86523C62.4463 3.86523 59.5605 7.10254 59.5605 11.4971ZM91.4648 22.4395C83.3203 22.4395 80.6543 18.4844 80.6543 12.4639V0.994141H84.6094V12.4639C84.6094 16.375 86.0596 19.1289 91.4648 19.1289C96.8701 19.1289 98.3203 16.375 98.3203 12.4639V0.994141H102.275V12.4639C102.275 18.4844 99.6094 22.4395 91.4648 22.4395ZM109.746 0.994141V18.6895H124.292V22H105.791V0.994141H109.746ZM147.832 22L145.239 17.2539H132.671L130.093 22H125.918L137.285 0.994141H140.64L152.007 22H147.832ZM138.955 5.69629L134.473 13.9287H143.438L138.955 5.69629Z" fill="#585858"/>
</svg>
