<svg width="36" height="33" viewBox="0 0 36 33" fill="none" xmlns="http://www.w3.org/2000/svg">
<g clip-path="url(#clip0_25_134)">
<path d="M26.25 10.5H22.5C22.5 8.51088 21.7098 6.60322 20.3033 5.1967C18.8968 3.79018 16.9891 3 15 3C13.0109 3 11.1032 3.79018 9.6967 5.1967C8.29018 6.60322 7.5 8.51088 7.5 10.5H3.75C2.75544 10.5 1.80161 10.8951 1.09835 11.5983C0.395088 12.3016 0 13.2554 0 14.25L0 26.75C0.00198482 28.407 0.661102 29.9956 1.83277 31.1672C3.00445 32.3389 4.59301 32.998 6.25 33H23.75C25.407 32.998 26.9956 32.3389 28.1672 31.1672C29.3389 29.9956 29.998 28.407 30 26.75V14.25C30 13.2554 29.6049 12.3016 28.9017 11.5983C28.1984 10.8951 27.2446 10.5 26.25 10.5ZM15 5.5C16.3261 5.5 17.5979 6.02678 18.5355 6.96447C19.4732 7.90215 20 9.17392 20 10.5H10C10 9.17392 10.5268 7.90215 11.4645 6.96447C12.4021 6.02678 13.6739 5.5 15 5.5ZM27.5 26.75C27.5 27.7446 27.1049 28.6984 26.4017 29.4017C25.6984 30.1049 24.7446 30.5 23.75 30.5H6.25C5.25544 30.5 4.30161 30.1049 3.59835 29.4017C2.89509 28.6984 2.5 27.7446 2.5 26.75V14.25C2.5 13.9185 2.6317 13.6005 2.86612 13.3661C3.10054 13.1317 3.41848 13 3.75 13H7.5V15.5C7.5 15.8315 7.6317 16.1495 7.86612 16.3839C8.10054 16.6183 8.41848 16.75 8.75 16.75C9.08152 16.75 9.39946 16.6183 9.63388 16.3839C9.8683 16.1495 10 15.8315 10 15.5V13H20V15.5C20 15.8315 20.1317 16.1495 20.3661 16.3839C20.6005 16.6183 20.9185 16.75 21.25 16.75C21.5815 16.75 21.8995 16.6183 22.1339 16.3839C22.3683 16.1495 22.5 15.8315 22.5 15.5V13H26.25C26.5815 13 26.8995 13.1317 27.1339 13.3661C27.3683 13.6005 27.5 13.9185 27.5 14.25V26.75Z" fill="#676767"/>
</g>
<circle cx="25.5" cy="10.5" r="10.5" fill="#FF91B9"/>
<path d="M26.71 6.2V16H25.324V7.418H23.112V6.2H26.71Z" fill="white"/>
<defs>
<clipPath id="clip0_25_134">
<rect width="30" height="30" fill="white" transform="translate(0 3)"/>
</clipPath>
</defs>
</svg>
