<svg width="40" height="40" viewBox="0 0 40 40" fill="none" xmlns="http://www.w3.org/2000/svg">
<g clip-path="url(#clip0_25_615)">
<g clip-path="url(#clip1_25_615)">
<path d="M29.1667 12.7271H25C25 10.3161 24.122 8.00377 22.5592 6.2989C20.9964 4.59402 18.8768 3.63623 16.6667 3.63623C14.4565 3.63623 12.3369 4.59402 10.7741 6.2989C9.21131 8.00377 8.33333 10.3161 8.33333 12.7271H4.16667C3.0616 12.7271 2.00179 13.206 1.22039 14.0585C0.438987 14.9109 0 16.0671 0 17.2726L0 32.4241C0.00220536 34.4326 0.734558 36.3581 2.03642 37.7783C3.33827 39.1985 5.10334 39.9975 6.94444 39.9999H26.3889C28.23 39.9975 29.9951 39.1985 31.2969 37.7783C32.5988 36.3581 33.3311 34.4326 33.3333 32.4241V17.2726C33.3333 16.0671 32.8943 14.9109 32.1129 14.0585C31.3315 13.206 30.2717 12.7271 29.1667 12.7271ZM16.6667 6.66653C18.1401 6.66653 19.5532 7.30506 20.595 8.44164C21.6369 9.57823 22.2222 11.1198 22.2222 12.7271H11.1111C11.1111 11.1198 11.6964 9.57823 12.7383 8.44164C13.7802 7.30506 15.1932 6.66653 16.6667 6.66653ZM30.5556 32.4241C30.5556 33.6296 30.1166 34.7858 29.3352 35.6382C28.5538 36.4907 27.494 36.9696 26.3889 36.9696H6.94444C5.83938 36.9696 4.77957 36.4907 3.99817 35.6382C3.21676 34.7858 2.77778 33.6296 2.77778 32.4241V17.2726C2.77778 16.8708 2.92411 16.4854 3.18457 16.2012C3.44504 15.9171 3.79831 15.7574 4.16667 15.7574H8.33333V18.7877C8.33333 19.1896 8.47966 19.575 8.74013 19.8591C9.0006 20.1433 9.35387 20.3029 9.72222 20.3029C10.0906 20.3029 10.4438 20.1433 10.7043 19.8591C10.9648 19.575 11.1111 19.1896 11.1111 18.7877V15.7574H22.2222V18.7877C22.2222 19.1896 22.3685 19.575 22.629 19.8591C22.8895 20.1433 23.2428 20.3029 23.6111 20.3029C23.9795 20.3029 24.3327 20.1433 24.5932 19.8591C24.8537 19.575 25 19.1896 25 18.7877V15.7574H29.1667C29.535 15.7574 29.8883 15.9171 30.1488 16.2012C30.4092 16.4854 30.5556 16.8708 30.5556 17.2726V32.4241Z" fill="#676767"/>
</g>
<ellipse cx="28.3332" cy="12.7273" rx="11.6667" ry="12.7273" fill="#C8C8C8"/>
<line x1="28.2778" y1="4.84863" x2="28.2778" y2="20.6062" stroke="white"/>
<line x1="21.1113" y1="12.8335" x2="35.5558" y2="12.8335" stroke="white"/>
</g>
<defs>
<clipPath id="clip0_25_615">
<rect width="40" height="40" fill="white"/>
</clipPath>
<clipPath id="clip1_25_615">
<rect width="33.3333" height="36.3636" fill="white" transform="translate(0 3.63623)"/>
</clipPath>
</defs>
</svg>
