<svg width="28" height="28" viewBox="0 0 28 28" fill="none" xmlns="http://www.w3.org/2000/svg">
<g clip-path="url(#clip0_3_25)">
<path d="M26.6336 10.6997L22.1081 6.17419C21.8881 5.96167 21.5934 5.84408 21.2875 5.84674C20.9816 5.8494 20.689 5.97209 20.4727 6.1884C20.2564 6.40471 20.1337 6.69733 20.131 7.00322C20.1284 7.30912 20.246 7.60382 20.4585 7.82386L24.984 12.3494C25.1184 12.4865 25.2359 12.6392 25.334 12.8044C25.3165 12.8044 25.3025 12.795 25.285 12.795L6.98698 12.8324C6.67756 12.8324 6.38081 12.9553 6.16202 13.1741C5.94323 13.3929 5.82031 13.6896 5.82031 13.999C5.82031 14.3084 5.94323 14.6052 6.16202 14.824C6.38081 15.0428 6.67756 15.1657 6.98698 15.1657L25.278 15.1284C25.3106 15.1284 25.3375 15.112 25.369 15.1097C25.2655 15.307 25.1343 15.4886 24.9793 15.6487L20.4538 20.1742C20.3424 20.2818 20.2535 20.4105 20.1924 20.5529C20.1312 20.6952 20.099 20.8483 20.0977 21.0032C20.0963 21.1581 20.1259 21.3118 20.1845 21.4551C20.2432 21.5985 20.3298 21.7288 20.4394 21.8383C20.5489 21.9479 20.6792 22.0345 20.8225 22.0932C20.9659 22.1518 21.1195 22.1813 21.2744 22.18C21.4294 22.1786 21.5824 22.1465 21.7248 22.0853C21.8671 22.0242 21.9959 21.9353 22.1035 21.8239L26.629 17.2984C27.5038 16.4232 27.9953 15.2365 27.9953 13.999C27.9953 12.7616 27.5038 11.5748 26.629 10.6997H26.6336Z" fill="#676767"/>
<path d="M8.16667 25.6667H5.83333C4.90508 25.6667 4.01484 25.2979 3.35846 24.6415C2.70208 23.9852 2.33333 23.0949 2.33333 22.1667V5.83333C2.33333 4.90508 2.70208 4.01484 3.35846 3.35846C4.01484 2.70208 4.90508 2.33333 5.83333 2.33333H8.16667C8.47609 2.33333 8.77283 2.21042 8.99162 1.99162C9.21042 1.77283 9.33333 1.47609 9.33333 1.16667C9.33333 0.857247 9.21042 0.560501 8.99162 0.341709C8.77283 0.122916 8.47609 0 8.16667 0L5.83333 0C4.28681 0.0018525 2.80415 0.617029 1.71059 1.71059C0.617029 2.80415 0.0018525 4.28681 0 5.83333L0 22.1667C0.0018525 23.7132 0.617029 25.1958 1.71059 26.2894C2.80415 27.383 4.28681 27.9981 5.83333 28H8.16667C8.47609 28 8.77283 27.8771 8.99162 27.6583C9.21042 27.4395 9.33333 27.1428 9.33333 26.8333C9.33333 26.5239 9.21042 26.2272 8.99162 26.0084C8.77283 25.7896 8.47609 25.6667 8.16667 25.6667Z" fill="#676767"/>
</g>
<defs>
<clipPath id="clip0_3_25">
<rect width="28" height="28" fill="white"/>
</clipPath>
</defs>
</svg>
