<svg width="40" height="37" viewBox="0 0 40 37" fill="none" xmlns="http://www.w3.org/2000/svg">
<path d="M29 3.02452C33.412 3.02452 37 6.64185 37 11.0899C37 20.5042 25.914 29.1181 20 33.3161C14.086 29.1181 3 20.5042 3 11.0899C3 6.64185 6.588 3.02452 11 3.02452C12.2846 3.02744 13.5497 3.34142 14.6889 3.94004C15.8281 4.53867 16.8079 5.40441 17.546 6.46441L20 9.98697L22.454 6.46643C23.1916 5.40581 24.1713 4.53949 25.3106 3.94049C26.4498 3.34148 27.7151 3.02733 29 3.02452ZM29 1.18085e-07C27.2334 -0.000260006 25.4927 0.429247 23.9259 1.25206C22.3591 2.07487 21.0124 3.26668 20 4.72632C18.9876 3.26668 17.6409 2.07487 16.0741 1.25206C14.5073 0.429247 12.7666 -0.000260006 11 1.18085e-07C8.08262 1.18085e-07 5.28473 1.1684 3.22183 3.24816C1.15893 5.32792 0 8.14869 0 11.0899C0 22.6214 13 32.1366 20 37C27 32.1366 40 22.6214 40 11.0899C40 9.63357 39.7155 8.19148 39.1627 6.84599C38.6099 5.5005 37.7996 4.27796 36.7782 3.24816C35.7567 2.21837 34.5441 1.40149 33.2095 0.84417C31.8749 0.286849 30.4445 1.18085e-07 29 1.18085e-07Z" fill="#676767"/>
</svg>
