<svg width="50" height="50" viewBox="0 0 50 50" fill="none" xmlns="http://www.w3.org/2000/svg">
<path d="M27.57 0C30.3825 0.0075 31.81 0.0225 33.0425 0.0575L33.5275 0.0749999C34.0875 0.0949999 34.64 0.12 35.3075 0.15C37.9675 0.275 39.7825 0.695 41.375 1.3125C43.025 1.9475 44.415 2.8075 45.805 4.195C47.0762 5.44474 48.0599 6.95647 48.6875 8.625C49.305 10.2175 49.725 12.0325 49.85 14.695C49.88 15.36 49.905 15.9125 49.925 16.475L49.94 16.96C49.9775 18.19 49.9925 19.6175 49.9975 22.43L50 24.295V27.57C50.0061 29.3935 49.987 31.217 49.9425 33.04L49.9275 33.525C49.9075 34.0875 49.8825 34.64 49.8525 35.305C49.7275 37.9675 49.3025 39.78 48.6875 41.375C48.0617 43.0444 47.0778 44.5565 45.805 45.805C44.5549 47.0758 43.0433 48.0594 41.375 48.6875C39.7825 49.305 37.9675 49.725 35.3075 49.85C34.7143 49.8779 34.1209 49.9029 33.5275 49.925L33.0425 49.94C31.81 49.975 30.3825 49.9925 27.57 49.9975L25.705 50H22.4325C20.6081 50.0063 18.7838 49.9871 16.96 49.9425L16.475 49.9275C15.8815 49.905 15.2882 49.8792 14.695 49.85C12.035 49.725 10.22 49.305 8.62498 48.6875C6.95665 48.0609 5.44552 47.0771 4.19748 45.805C2.92509 44.5557 1.94054 43.0439 1.31248 41.375C0.694978 39.7825 0.274978 37.9675 0.149978 35.305C0.122125 34.7118 0.0971243 34.1185 0.0749776 33.525L0.0624779 33.04C0.016408 31.217 -0.00442755 29.3935 -2.23418e-05 27.57V22.43C-0.00699976 20.6065 0.0113355 18.783 0.0549778 16.96L0.0724778 16.475C0.0924778 15.9125 0.117478 15.36 0.147478 14.695C0.272478 12.0325 0.692477 10.22 1.30998 8.625C1.93776 6.95476 2.92428 5.44256 4.19998 4.195C5.44771 2.92369 6.95784 1.93997 8.62498 1.3125C10.22 0.695 12.0325 0.275 14.695 0.15C15.36 0.12 15.915 0.0949999 16.475 0.0749999L16.96 0.0599998C18.783 0.0155818 20.6065 -0.00358674 22.43 0.00249982L27.57 0ZM25 12.5C21.6848 12.5 18.5054 13.817 16.1611 16.1612C13.8169 18.5054 12.5 21.6848 12.5 25C12.5 28.3152 13.8169 31.4946 16.1611 33.8388C18.5054 36.183 21.6848 37.5 25 37.5C28.3152 37.5 31.4946 36.183 33.8388 33.8388C36.183 31.4946 37.5 28.3152 37.5 25C37.5 21.6848 36.183 18.5054 33.8388 16.1612C31.4946 13.817 28.3152 12.5 25 12.5ZM25 17.5C25.9849 17.4998 26.9602 17.6937 27.8702 18.0704C28.7802 18.4472 29.6071 18.9995 30.3036 19.6958C31.0002 20.3921 31.5528 21.2188 31.9298 22.1287C32.3069 23.0386 32.5011 24.0138 32.5012 24.9988C32.5014 25.9837 32.3076 26.959 31.9308 27.869C31.554 28.779 31.0017 29.6059 30.3054 30.3024C29.6091 30.999 28.7824 31.5516 27.8725 31.9286C26.9626 32.3057 25.9874 32.4998 25.0025 32.5C23.0134 32.5 21.1057 31.7098 19.6992 30.3033C18.2927 28.8968 17.5025 26.9891 17.5025 25C17.5025 23.0109 18.2927 21.1032 19.6992 19.6967C21.1057 18.2902 23.0134 17.5 25.0025 17.5M38.1275 8.75C37.2987 8.75 36.5038 9.07924 35.9178 9.66529C35.3317 10.2513 35.0025 11.0462 35.0025 11.875C35.0025 12.7038 35.3317 13.4987 35.9178 14.0847C36.5038 14.6708 37.2987 15 38.1275 15C38.9563 15 39.7511 14.6708 40.3372 14.0847C40.9232 13.4987 41.2525 12.7038 41.2525 11.875C41.2525 11.0462 40.9232 10.2513 40.3372 9.66529C39.7511 9.07924 38.9563 8.75 38.1275 8.75Z" fill="#676767"/>
</svg>
