<svg width="40" height="40" viewBox="0 0 40 40" fill="none" xmlns="http://www.w3.org/2000/svg">
<path d="M21.7135 3.33331C23.5885 3.33831 24.5401 3.34831 25.3618 3.37165L25.6852 3.38331C26.0585 3.39665 26.4268 3.41331 26.8718 3.43331C28.6451 3.51665 29.8552 3.79665 30.9168 4.20831C32.0168 4.63165 32.9435 5.20498 33.8702 6.12998C34.7176 6.96314 35.3734 7.97096 35.7918 9.08331C36.2035 10.145 36.4835 11.355 36.5668 13.13C36.5868 13.5733 36.6035 13.9416 36.6168 14.3166L36.6268 14.64C36.6518 15.46 36.6618 16.4116 36.6652 18.2866L36.6668 19.53V21.7133C36.6709 22.929 36.6581 24.1447 36.6285 25.36L36.6185 25.6833C36.6052 26.0583 36.5885 26.4266 36.5685 26.87C36.4851 28.645 36.2018 29.8533 35.7918 30.9166C35.3746 32.0296 34.7187 33.0377 33.8702 33.87C33.0368 34.7172 32.029 35.3729 30.9168 35.7916C29.8552 36.2033 28.6451 36.4833 26.8718 36.5667C26.4763 36.5853 26.0808 36.6019 25.6852 36.6166L25.3618 36.6266C24.5401 36.65 23.5885 36.6616 21.7135 36.665L20.4701 36.6666H18.2885C17.0723 36.6708 15.856 36.6581 14.6401 36.6283L14.3168 36.6183C13.9212 36.6033 13.5256 36.5861 13.1301 36.5667C11.3568 36.4833 10.1468 36.2033 9.08348 35.7916C7.97126 35.3739 6.96384 34.7181 6.13181 33.87C5.28356 33.0371 4.62719 32.0292 4.20848 30.9166C3.79681 29.855 3.51681 28.645 3.43348 26.87C3.41491 26.4745 3.39825 26.0789 3.38348 25.6833L3.37515 25.36C3.34443 24.1447 3.33054 22.929 3.33348 21.7133V18.2866C3.32883 17.071 3.34105 15.8553 3.37015 14.64L3.38181 14.3166C3.39515 13.9416 3.41181 13.5733 3.43181 13.13C3.51515 11.355 3.79515 10.1466 4.20681 9.08331C4.62534 7.96982 5.28302 6.96169 6.13348 6.12998C6.9653 5.28244 7.97205 4.62662 9.08348 4.20831C10.1468 3.79665 11.3551 3.51665 13.1301 3.43331C13.5735 3.41331 13.9435 3.39665 14.3168 3.38331L14.6401 3.37331C15.8555 3.3437 17.0711 3.33092 18.2868 3.33498L21.7135 3.33331ZM20.0001 11.6666C17.79 11.6666 15.6704 12.5446 14.1076 14.1074C12.5448 15.6702 11.6668 17.7898 11.6668 20C11.6668 22.2101 12.5448 24.3297 14.1076 25.8925C15.6704 27.4553 17.79 28.3333 20.0001 28.3333C22.2103 28.3333 24.3299 27.4553 25.8927 25.8925C27.4555 24.3297 28.3335 22.2101 28.3335 20C28.3335 17.7898 27.4555 15.6702 25.8927 14.1074C24.3299 12.5446 22.2103 11.6666 20.0001 11.6666ZM20.0001 15C20.6568 14.9999 21.307 15.1291 21.9136 15.3803C22.5203 15.6314 23.0716 15.9996 23.5359 16.4639C24.0003 16.9281 24.3687 17.4792 24.6201 18.0858C24.8714 18.6924 25.0009 19.3425 25.001 19.9991C25.0011 20.6558 24.8719 21.306 24.6207 21.9126C24.3695 22.5193 24.0013 23.0706 23.5371 23.5349C23.0729 23.9993 22.5218 24.3677 21.9152 24.6191C21.3086 24.8704 20.6584 24.9999 20.0018 25C18.6757 25 17.404 24.4732 16.4663 23.5355C15.5286 22.5978 15.0018 21.3261 15.0018 20C15.0018 18.6739 15.5286 17.4021 16.4663 16.4644C17.404 15.5268 18.6757 15 20.0018 15M28.7518 9.16665C28.1993 9.16665 27.6694 9.38614 27.2787 9.77684C26.888 10.1675 26.6685 10.6974 26.6685 11.25C26.6685 11.8025 26.888 12.3324 27.2787 12.7231C27.6694 13.1138 28.1993 13.3333 28.7518 13.3333C29.3043 13.3333 29.8343 13.1138 30.225 12.7231C30.6157 12.3324 30.8351 11.8025 30.8351 11.25C30.8351 10.6974 30.6157 10.1675 30.225 9.77684C29.8343 9.38614 29.3043 9.16665 28.7518 9.16665Z" fill="#FF91B9"/>
</svg>
