<svg width="403" height="42" viewBox="0 0 403 42" fill="none" xmlns="http://www.w3.org/2000/svg">
<path d="M28.248 25.52V24.176C28.76 22.2133 29.2507 20.2293 29.72 18.224C30.4453 14.768 31.384 11.3973 32.536 8.112C28.9093 11.9093 25.24 15.3013 21.528 18.288C17.816 21.232 13.6987 23.5787 9.176 25.328C8.10933 25.712 6.85067 25.8613 5.4 25.776C3.94933 25.648 2.79733 24.9867 1.944 23.792C1.09067 22.5973 1.00533 20.528 1.688 17.584C2.84 13.5307 3.69333 10.7147 4.248 9.136C4.67467 7.856 4.952 6.91733 5.08 6.32C5.208 5.72267 5.22933 5.104 5.144 4.464C6.168 4.89067 6.616 5.616 6.488 6.64C6.36 7.664 6.08267 8.66667 5.656 9.648C5.61333 9.69066 5.592 9.73333 5.592 9.776C3.11733 16.0907 2.17867 20.336 2.776 22.512C3.37333 24.688 4.952 25.4347 7.512 24.752C10.1147 24.0693 13.1013 22.5547 16.472 20.208C19.8853 17.8187 23.1493 15.2373 26.264 12.464C29.3787 9.69067 31.768 7.30133 33.432 5.296C33.4747 5.25333 33.5173 5.21067 33.56 5.168C33.688 5.08266 33.7947 4.976 33.88 4.848C34.0507 4.464 34.2427 4.08 34.456 3.696C34.584 3.44 34.7333 3.16266 34.904 2.864C35.032 2.608 35.16 2.50133 35.288 2.544C35.416 2.544 35.544 2.62933 35.672 2.8C35.8 2.97067 35.928 3.16267 36.056 3.376C36.2267 3.67466 36.376 3.888 36.504 4.016L35.928 5.04C33.624 10.544 31.512 16.4533 29.592 22.768C29.4213 23.408 29.2293 24.048 29.016 24.688L28.248 25.52ZM72.4205 18.224L72.0365 19.184C68.1965 19.4827 64.3778 19.9093 60.5805 20.464C58.7458 20.7627 56.9325 21.1467 55.1405 21.616C54.7138 21.7013 54.2658 21.808 53.7965 21.936L53.1565 22.128L52.8365 22.256L52.3885 22.384L48.1645 23.856L49.8285 21.68L50.7885 20.4C50.8312 20.272 50.8738 20.1653 50.9165 20.08C50.9165 20.0373 50.9378 19.9947 50.9805 19.952L51.1085 19.568C51.1938 19.0987 51.1298 18.6933 50.9165 18.352C50.7885 18.1813 50.6605 18.0747 50.5325 18.032C50.4045 17.9893 50.2125 17.968 49.9565 17.968C48.0792 17.9253 46.3938 18.5013 44.9005 19.696L43.9405 22.576L42.0845 28.528L38.3725 40.304L37.6045 41.264V39.728L40.8685 27.568L42.5325 21.488C43.0445 19.44 43.8338 17.4133 44.9005 15.408C45.2418 15.92 45.6045 16.432 45.9885 16.944C46.0738 16.9013 46.1378 16.88 46.1805 16.88C46.3938 16.752 46.6285 16.6667 46.8845 16.624C47.5245 16.4107 48.1432 16.2827 48.7405 16.24C48.7832 16.24 48.8045 16.24 48.8045 16.24C49.1032 16.1973 49.4018 16.176 49.7005 16.176C49.9992 16.176 50.3405 16.2187 50.7245 16.304C51.1512 16.3893 51.5565 16.6027 51.9405 16.944C52.2392 17.2853 52.4525 17.648 52.5805 18.032C52.8365 18.8 52.8365 19.5467 52.5805 20.272L52.3885 20.848L53.5405 20.528L54.9485 20.208C56.8258 19.824 58.7245 19.504 60.6445 19.248C64.5698 18.7787 68.4952 18.4373 72.4205 18.224ZM103.612 18.672C104.465 18.5867 104.956 18.5867 105.083 18.672C105.212 18.7147 105.084 18.8427 104.7 19.056C104.358 19.2267 103.889 19.4187 103.292 19.632C102.524 19.8027 101.372 20.08 99.8355 20.464C98.3422 20.848 96.7635 21.2747 95.0995 21.744C93.4782 22.1707 92.0702 22.5547 90.8755 22.896C89.6808 23.2373 89.0835 23.408 89.0835 23.408C88.4008 23.408 88.1662 23.1093 88.3795 22.512C88.6355 21.9147 89.0408 21.1253 89.5955 20.144C89.7662 19.888 89.9368 19.6107 90.1075 19.312C90.0648 19.2693 90.0222 19.248 89.9795 19.248C89.9368 19.248 89.8942 19.248 89.8515 19.248C89.8088 19.248 89.7875 19.248 89.7875 19.248L89.4035 19.376C84.4542 21.3813 79.8035 22.896 75.4515 23.92L72.8915 24.304C72.6782 24.304 72.4648 24.304 72.2515 24.304C71.9955 24.3467 71.7608 24.368 71.5475 24.368C71.4195 24.368 71.2488 24.368 71.0355 24.368C70.7795 24.3253 70.5235 24.24 70.2675 24.112C70.0115 23.984 69.8195 23.8133 69.6915 23.6C69.5208 23.3013 69.4355 22.96 69.4355 22.576C69.3502 22.1067 69.4995 21.5947 69.8835 21.04C70.2675 20.4427 70.7155 19.8453 71.2275 19.248C72.0382 18.3093 72.5715 17.456 72.8275 16.688C73.1688 16.7307 73.4888 16.88 73.7875 17.136C74.1288 17.392 74.4275 17.6693 74.6835 17.968C74.6835 17.968 74.5555 18.1173 74.2995 18.416C74.0862 18.7147 73.8088 19.0987 73.4675 19.568C73.1688 19.9947 72.8915 20.4427 72.6355 20.912C72.4222 21.3813 72.2942 21.7653 72.2515 22.064C72.2515 22.3627 72.4222 22.512 72.7635 22.512C73.5742 22.4267 74.2995 22.3413 74.9395 22.256C75.5795 22.128 76.2408 21.9787 76.9235 21.808C77.5208 21.68 78.1822 21.5307 78.9075 21.36C79.4195 21.2747 80.0382 21.1467 80.7635 20.976C81.5315 20.7627 82.6195 20.4213 84.0275 19.952C85.4782 19.4827 87.4835 18.7787 90.0435 17.84C91.0248 17.6267 91.5795 17.84 91.7075 18.48C91.8782 19.0773 91.2595 20.272 89.8515 22.064C89.8515 22.064 90.4062 21.9147 91.5155 21.616C92.6675 21.3173 94.0328 20.976 95.6115 20.592C97.2328 20.1653 98.7688 19.7813 100.22 19.44C101.713 19.0987 102.844 18.8427 103.612 18.672ZM120.502 18.224C120.544 18.0533 120.566 17.9253 120.566 17.84C120.566 17.6267 120.523 17.4773 120.438 17.392C120.395 17.264 120.374 17.136 120.374 17.008C120.374 16.9227 120.416 16.816 120.502 16.688H120.822C121.462 16.688 121.782 17.008 121.782 17.648C121.782 18.416 121.504 19.376 120.95 20.528L124.598 20.016C128.651 19.504 131.616 19.056 133.494 18.672L134.71 18.608C134.923 18.608 135.03 18.6293 135.03 18.672C135.03 19.2693 131.531 20.08 124.534 21.104L120.182 21.872C119.67 21.872 119.414 21.7013 119.414 21.36C119.414 21.0187 119.563 20.464 119.862 19.696C114.998 20.2933 110.134 20.6773 105.27 20.848C105.227 20.8907 105.227 21.0187 105.27 21.232C105.27 21.4453 105.312 21.616 105.398 21.744V21.872C105.526 22 105.675 22.128 105.846 22.256C106.016 22.384 106.208 22.4693 106.422 22.512C106.507 22.5973 106.614 22.6613 106.742 22.704C106.87 22.704 106.998 22.6827 107.126 22.64C107.126 22.8107 106.998 22.96 106.742 23.088C106.486 23.216 106.208 23.2587 105.91 23.216C105.227 23.0453 104.736 22.6187 104.438 21.936C104.267 21.2533 104.245 20.5707 104.373 19.888V19.696C104.416 19.6107 104.438 19.4827 104.438 19.312C104.48 18.9707 104.587 18.5227 104.758 17.968C104.928 17.3707 105.227 16.7307 105.654 16.048L106.806 17.968C106.806 18.0107 106.784 18.032 106.742 18.032C106.742 18.0747 106.72 18.096 106.678 18.096C106.678 18.1813 106.635 18.2667 106.549 18.352C106.379 18.6507 106.187 18.992 105.974 19.376C105.888 19.4613 105.824 19.5467 105.782 19.632C111.2 19.5467 116.107 19.0773 120.502 18.224ZM159.724 18.672C160.876 18.5013 161.196 18.6507 160.684 19.12C158.721 20.0587 156.268 20.6133 153.324 20.784C150.38 20.912 147.82 20.5067 145.644 19.568C145.388 19.44 145.174 19.2693 145.004 19.056C144.833 18.8427 144.662 18.672 144.492 18.544C144.321 18.416 144.108 18.3947 143.852 18.48L143.084 18.864L139.884 20.336L136.748 21.744C136.705 21.744 136.662 21.7653 136.62 21.808C136.15 22.1067 135.553 22.2987 134.828 22.384C134.444 22.384 134.059 22.2773 133.675 22.064C133.291 21.8507 133.014 21.4667 132.843 20.912C132.843 20.4853 132.907 20.144 133.035 19.888C133.121 19.5893 133.227 19.3547 133.355 19.184C133.398 19.184 133.419 19.1627 133.419 19.12C133.675 18.6933 133.974 18.288 134.316 17.904C134.316 17.904 134.337 17.8827 134.38 17.84C135.148 17.072 136.001 16.4747 136.94 16.048C138.945 15.1093 141.036 14.9387 143.212 15.536C142.657 16.0053 142.145 16.56 141.676 17.2C140.14 16.9013 138.668 17.136 137.26 17.904C136.577 18.2453 135.98 18.6933 135.468 19.248C135.212 19.504 134.977 19.8027 134.764 20.144C134.593 20.3573 134.508 20.528 134.508 20.656H134.572C134.614 20.6987 134.657 20.7413 134.7 20.784C134.742 20.784 134.785 20.7627 134.828 20.72C135.041 20.7627 135.34 20.6987 135.724 20.528C135.852 20.4427 136.001 20.3787 136.172 20.336L142.7 17.52L143.148 17.392L143.66 17.136C144.3 16.9653 144.854 17.072 145.324 17.456C145.622 17.7973 145.814 18.032 145.9 18.16C145.942 18.2027 145.985 18.2453 146.028 18.288L146.476 18.672C148.14 19.5253 150.273 19.8667 152.876 19.696C155.478 19.4827 157.761 19.1413 159.724 18.672ZM223.659 20.144C223.574 20.4427 223.51 20.6987 223.467 20.912C223.424 21.2107 223.424 21.424 223.467 21.552C223.552 21.7653 223.702 21.9573 223.915 22.128C224.171 22.2987 224.448 22.4053 224.747 22.448C225.643 22.5333 226.71 22.4053 227.947 22.064C228.502 21.8933 229.035 21.7653 229.547 21.68C231.254 21.2533 233.003 20.848 234.795 20.464C238.251 19.696 241.75 19.0347 245.291 18.48L247.339 18.608L244.907 19.44C241.366 20.1227 237.846 20.8907 234.347 21.744L229.099 23.088L228.715 23.216C227.99 23.4293 227.222 23.6213 226.411 23.792C225.472 24.0053 224.512 23.92 223.531 23.536C223.062 23.28 222.656 22.9387 222.315 22.512C222.016 21.9573 221.888 21.4453 221.931 20.976C221.974 20.5067 221.995 20.2293 221.995 20.144C222.251 18.992 222.55 17.84 222.891 16.688C223.787 13.5307 224.875 10.4373 226.155 7.408C223.126 10.5653 221.291 12.4213 220.651 12.976C219.03 14.7253 217.387 16.432 215.723 18.096C214.102 19.8027 212.31 21.3813 210.347 22.832C209.835 23.216 209.302 23.536 208.747 23.792L207.851 24.176L207.019 24.368C206.379 24.5387 205.739 24.624 205.099 24.624C204.374 24.5813 203.712 24.368 203.115 23.984C202.475 23.6 202.07 22.9813 201.899 22.128C201.856 21.488 201.92 20.912 202.091 20.4C202.134 20.3147 202.155 20.2293 202.155 20.144C202.411 18.992 202.71 17.84 203.051 16.688C203.947 13.5307 205.035 10.4373 206.315 7.408C202.091 12.528 196.992 16.624 191.019 19.696C187.904 21.36 184.555 22.4907 180.971 23.088C180.075 23.216 179.136 23.2373 178.155 23.152C177.643 23.1093 177.11 22.9173 176.555 22.576L176.171 22.128C176.043 22 175.958 21.8293 175.915 21.616L175.851 21.04C175.851 20.8267 175.872 20.6773 175.915 20.592C176.086 19.7813 176.299 19.0347 176.555 18.352C176.64 18.224 176.704 18.0747 176.747 17.904L177.259 16.688C177.302 16.56 177.366 16.4107 177.451 16.24C178.688 12.8267 179.99 9.456 181.355 6.128L183.403 1.456L185.579 0.879997L183.595 5.296L182.507 7.792C182.08 9.072 181.611 10.3307 181.099 11.568C180.331 13.5307 179.648 15.4507 179.051 17.328L178.987 17.264L179.051 17.392C178.923 17.648 178.816 17.904 178.731 18.16C178.475 18.672 178.262 19.184 178.091 19.696L177.707 20.784V20.912C177.664 20.912 177.643 20.9333 177.643 20.976V21.104C177.643 21.1467 177.707 21.1893 177.835 21.232C177.963 21.2747 178.112 21.3173 178.283 21.36C178.624 21.4453 178.987 21.488 179.371 21.488C180.139 21.488 180.928 21.424 181.739 21.296C185.024 20.6987 188.16 19.6107 191.147 18.032C197.248 14.96 202.432 10.7573 206.699 5.424L207.467 4.848C207.68 4.336 207.915 3.824 208.171 3.312L209.195 5.616C207.19 9.75467 205.547 14.0427 204.267 18.48L203.819 20.144L203.691 20.656C203.563 21.0827 203.499 21.424 203.499 21.68C203.499 21.8507 203.52 22 203.563 22.128C203.606 22.256 203.691 22.384 203.819 22.512C204.032 22.768 204.352 22.9387 204.779 23.024C205.206 23.1093 205.675 23.1093 206.187 23.024C206.742 22.9387 207.254 22.8107 207.723 22.64C208.662 22.256 209.579 21.7227 210.475 21.04C213.334 18.6507 216.107 16.0693 218.795 13.296C219.35 12.6987 219.926 12.1013 220.523 11.504C221.206 10.9067 223.211 8.88 226.539 5.424L227.307 4.848C227.52 4.336 227.755 3.824 228.011 3.312L229.035 5.616C227.03 9.75467 225.387 14.0427 224.107 18.48L223.659 20.144ZM271.286 18.672C272.438 18.5013 272.758 18.6507 272.246 19.12C270.283 20.0587 267.83 20.6133 264.886 20.784C261.942 20.912 259.382 20.5067 257.206 19.568C256.95 19.44 256.737 19.2693 256.566 19.056C256.395 18.8427 256.225 18.672 256.054 18.544C255.883 18.416 255.67 18.3947 255.414 18.48L254.646 18.864L251.446 20.336L248.31 21.744C248.267 21.744 248.225 21.7653 248.182 21.808C247.713 22.1067 247.115 22.2987 246.39 22.384C246.006 22.384 245.622 22.2773 245.238 22.064C244.854 21.8507 244.577 21.4667 244.406 20.912C244.406 20.4853 244.47 20.144 244.598 19.888C244.683 19.5893 244.79 19.3547 244.918 19.184C244.961 19.184 244.982 19.1627 244.982 19.12C245.238 18.6933 245.537 18.288 245.878 17.904C245.878 17.904 245.899 17.8827 245.942 17.84C246.71 17.072 247.563 16.4747 248.502 16.048C250.507 15.1093 252.598 14.9387 254.774 15.536C254.219 16.0053 253.707 16.56 253.238 17.2C251.702 16.9013 250.23 17.136 248.822 17.904C248.139 18.2453 247.542 18.6933 247.03 19.248C246.774 19.504 246.539 19.8027 246.326 20.144C246.155 20.3573 246.07 20.528 246.07 20.656H246.134C246.177 20.6987 246.219 20.7413 246.262 20.784C246.305 20.784 246.347 20.7627 246.39 20.72C246.603 20.7627 246.902 20.6987 247.286 20.528C247.414 20.4427 247.563 20.3787 247.734 20.336L254.262 17.52L254.71 17.392L255.222 17.136C255.862 16.9653 256.417 17.072 256.886 17.456C257.185 17.7973 257.377 18.032 257.462 18.16C257.505 18.2027 257.547 18.2453 257.59 18.288L258.038 18.672C259.702 19.5253 261.835 19.8667 264.438 19.696C267.041 19.4827 269.323 19.1413 271.286 18.672ZM311.869 18.544C312.594 18.5867 313.341 18.608 314.109 18.608C313.213 18.9493 312.296 19.248 311.357 19.504C308.541 19.888 305.704 20.1227 302.845 20.208L300.669 20.336C299.986 20.4213 299.282 20.4427 298.557 20.4C298.173 20.3573 297.789 20.272 297.405 20.144C297.021 20.016 296.722 19.7813 296.509 19.44C296.338 19.1413 296.232 18.8853 296.189 18.672C296.104 18.416 296.018 18.224 295.933 18.096C295.848 17.9253 295.698 17.8187 295.485 17.776C295.101 17.6907 294.632 17.712 294.077 17.84C293.906 17.8827 293.736 17.9253 293.565 17.968C292.882 18.1387 292.2 18.352 291.517 18.608C290.237 19.0347 288.978 19.6107 287.741 20.336L285.949 21.488C285.608 21.7013 285.224 21.872 284.797 22C284.37 22.128 283.922 22.128 283.453 22C283.24 21.9573 283.026 21.8507 282.813 21.68C282.6 21.4667 282.45 21.2533 282.365 21.04C282.194 20.6987 282.109 20.3573 282.109 20.016C282.066 19.9307 282.045 19.8453 282.045 19.76C282.045 19.5893 282.045 19.4187 282.045 19.248C282.045 19.0773 282.024 18.928 281.981 18.8C281.938 18.672 281.896 18.5867 281.853 18.544C281.81 18.5013 281.768 18.4587 281.725 18.416C281.085 18.416 280.381 18.5227 279.613 18.736C278.632 18.992 277.608 19.376 276.541 19.888C275.517 20.4 274.6 20.976 273.789 21.616L271.357 23.472C270.76 23.5147 270.397 23.3013 270.269 22.832C270.141 22.32 270.162 21.7227 270.333 21.04C270.461 20.3147 270.61 19.6533 270.781 19.056C270.824 18.8427 270.866 18.6507 270.909 18.48L271.165 17.712L271.421 17.136C271.89 16.112 272.296 15.7067 272.637 15.92C272.978 16.1333 273.192 16.7307 273.277 17.712L272.317 20.4L272.893 20.016C273.064 19.9307 273.234 19.824 273.405 19.696C275.197 18.5867 277.138 17.712 279.229 17.072C279.656 16.944 280.125 16.8587 280.637 16.816C280.722 16.816 280.829 16.816 280.957 16.816C281.085 16.7733 281.213 16.752 281.341 16.752C281.597 16.752 281.96 16.816 282.429 16.944C282.77 17.1147 283.026 17.3493 283.197 17.648C283.41 17.9467 283.538 18.224 283.581 18.48C283.581 18.5227 283.581 18.544 283.581 18.544C283.624 18.9707 283.645 19.376 283.645 19.76C283.645 19.9307 283.645 20.08 283.645 20.208C283.688 20.2933 283.73 20.3573 283.773 20.4C283.773 20.4427 283.773 20.4853 283.773 20.528C283.816 20.528 283.837 20.5493 283.837 20.592C283.88 20.592 283.922 20.592 283.965 20.592C284.264 20.6773 284.69 20.528 285.245 20.144C285.629 19.888 286.056 19.632 286.525 19.376C286.738 19.248 286.952 19.12 287.165 18.992C288.53 18.3093 289.917 17.712 291.325 17.2L293.565 16.624L294.781 16.432C294.994 16.432 295.25 16.4533 295.549 16.496C295.848 16.5387 296.146 16.6667 296.445 16.88C296.744 17.0933 296.957 17.3493 297.085 17.648C297.213 17.904 297.298 18.1173 297.341 18.288C297.384 18.416 297.426 18.5227 297.469 18.608C297.512 18.6933 297.533 18.7573 297.533 18.8C297.576 18.8 297.597 18.8213 297.597 18.864C297.682 18.992 297.853 19.0987 298.109 19.184C298.365 19.2267 298.642 19.248 298.941 19.248C299.624 19.2907 300.328 19.2693 301.053 19.184L303.229 19.12C306.173 19.0773 309.053 18.8853 311.869 18.544ZM336.097 18.48L337.569 18.224L336.993 19.312C335.286 19.696 333.409 20.0587 331.361 20.4C329.313 20.6987 327.393 20.8693 325.601 20.912C323.937 20.912 322.315 20.784 320.737 20.528L320.545 20.848C319.947 21.8293 319.201 22.6187 318.305 23.216C317.323 23.856 316.278 24.2613 315.169 24.432C314.614 24.5173 314.038 24.496 313.441 24.368C313.099 24.3253 312.779 24.2187 312.48 24.048C312.139 23.8347 311.862 23.5573 311.648 23.216C311.307 22.4907 311.179 21.808 311.264 21.168C311.35 20.528 311.542 19.9733 311.84 19.504C312.438 18.4373 313.248 17.584 314.273 16.944C314.699 16.7307 314.934 16.8587 314.977 17.328C315.019 17.7973 314.827 18.4587 314.401 19.312C313.803 19.8667 313.398 20.5067 313.184 21.232C313.056 21.5733 313.035 21.872 313.12 22.128C313.163 22.2133 313.206 22.2987 313.248 22.384C313.291 22.4267 313.377 22.4693 313.505 22.512C313.761 22.64 314.081 22.704 314.465 22.704C314.849 22.704 315.233 22.6613 315.617 22.576C316.427 22.3627 317.153 22 317.793 21.488C318.347 21.104 318.817 20.6347 319.201 20.08C318.731 19.952 318.305 19.7813 317.921 19.568L316.769 19.056C316.513 19.0133 316.257 18.9067 316.001 18.736C315.745 18.5227 315.617 18.2667 315.617 17.968C315.617 17.6267 315.723 17.3067 315.937 17.008C316.15 16.7093 316.385 16.496 316.641 16.368C317.238 16.112 317.793 15.984 318.305 15.984C318.603 15.984 318.881 16.0053 319.137 16.048C319.393 16.048 319.67 16.0693 319.969 16.112C320.31 16.1973 320.587 16.3893 320.801 16.688C321.057 16.944 321.227 17.2427 321.312 17.584C321.441 18.224 321.398 18.8213 321.185 19.376C322.721 19.632 324.278 19.76 325.857 19.76C329.27 19.76 332.683 19.3333 336.097 18.48ZM318.561 18.416C318.646 18.4587 318.731 18.5013 318.817 18.544C319.073 18.672 319.371 18.8 319.713 18.928C319.713 18.8427 319.713 18.7787 319.713 18.736C319.713 18.6933 319.734 18.6507 319.777 18.608C319.862 18.2667 319.862 17.9893 319.777 17.776C319.734 17.7333 319.713 17.712 319.713 17.712C319.713 17.6693 319.691 17.648 319.649 17.648C319.649 17.6053 319.627 17.584 319.585 17.584C319.542 17.5413 319.478 17.52 319.393 17.52C319.009 17.4347 318.603 17.4133 318.177 17.456C317.793 17.456 317.494 17.52 317.281 17.648C317.238 17.6907 317.195 17.712 317.153 17.712C317.153 17.7547 317.131 17.776 317.089 17.776L317.281 17.84C317.409 17.8827 317.579 17.968 317.793 18.096C318.006 18.1813 318.198 18.2667 318.369 18.352C318.454 18.352 318.518 18.3733 318.561 18.416ZM352.223 15.472C354.527 14.704 356.746 13.7867 358.879 12.72C360.244 12.08 361.46 11.2907 362.527 10.352C363.039 9.88267 363.466 9.34933 363.807 8.752C363.978 8.41066 364.063 8.112 364.063 7.856C364.063 7.38667 363.828 7.06667 363.359 6.896C362.932 6.68266 362.42 6.576 361.823 6.576C361.311 6.576 360.799 6.64 360.287 6.768C359.775 6.85333 359.348 6.98133 359.007 7.152C357.343 7.83467 355.914 8.90133 354.719 10.352C353.652 11.8027 352.842 13.4027 352.287 15.152L352.223 15.472ZM351.967 16.688C351.626 17.8827 351.327 19.0987 351.071 20.336L350.431 23.6L356.319 17.712C356.66 17.3707 357.044 17.072 357.471 16.816C357.812 16.6027 358.218 16.496 358.687 16.496C358.986 16.496 359.263 16.56 359.519 16.688C359.818 16.816 360.074 17.008 360.287 17.264C360.5 17.52 360.671 17.776 360.799 18.032C360.927 18.3733 360.991 18.736 360.991 19.12C362.868 18.5227 364.746 18.1387 366.623 17.968L369.631 17.84C371.807 17.84 373.983 17.9893 376.159 18.288C376.415 18.3733 376.628 18.4587 376.799 18.544C376.97 18.5867 377.055 18.6293 377.055 18.672C377.055 18.7573 376.927 18.8427 376.671 18.928C376.415 18.9707 375.988 19.0133 375.391 19.056C373.812 18.928 372.212 18.864 370.591 18.864C369.14 18.864 367.711 18.928 366.303 19.056C364.34 19.2267 362.484 19.696 360.735 20.464C360.692 20.5493 360.65 20.6133 360.607 20.656C360.522 20.8267 360.458 20.9973 360.415 21.168C360.244 21.552 359.967 21.936 359.583 22.32L359.519 22.384C359.476 22.4693 359.391 22.576 359.263 22.704C359.178 22.7893 359.05 22.8747 358.879 22.96H358.815C358.644 23.0453 358.431 23.088 358.175 23.088H357.983C357.727 23.0453 357.514 22.96 357.343 22.832C357.215 22.704 357.108 22.576 357.023 22.448L356.639 21.744C357.151 21.2747 357.62 20.8907 358.047 20.592C358.474 20.2933 359.007 19.9947 359.647 19.696C359.69 19.5253 359.711 19.3333 359.711 19.12C359.711 18.864 359.647 18.6293 359.519 18.416C359.263 18.032 358.964 17.84 358.623 17.84C358.41 17.84 358.175 17.9467 357.919 18.16C357.492 18.5013 357.066 18.9067 356.639 19.376L356.191 19.824C355.636 20.4213 355.188 20.8907 354.847 21.232C354.548 21.5733 354.314 21.8293 354.143 22C353.972 22.2133 353.802 22.4053 353.631 22.576C353.46 22.7467 353.226 22.9813 352.927 23.28C352.628 23.5787 352.138 24.0693 351.455 24.752C351.327 24.88 351.199 25.008 351.071 25.136C350.986 25.2213 350.858 25.3067 350.687 25.392C350.346 25.5627 350.004 25.648 349.663 25.648C349.492 25.648 349.322 25.6267 349.151 25.584H349.087C349.002 25.5413 348.938 25.4987 348.895 25.456C348.852 25.4133 348.831 25.3707 348.831 25.328C348.831 24.6027 348.852 24.1333 348.895 23.92V23.28C348.938 22.6827 348.98 22.256 349.023 22C349.066 21.7013 349.087 21.4667 349.087 21.296C349.13 21.1253 349.194 20.9547 349.279 20.784C349.322 20.4853 349.45 19.888 349.663 18.992C349.748 18.3947 349.876 17.8187 350.047 17.264C344.33 18.928 338.463 20.016 332.447 20.528L331.359 20.592C330.506 20.592 330.1 20.5067 330.143 20.336C330.143 20.08 331.21 19.824 333.343 19.568C339.146 18.8853 344.82 17.6907 350.367 15.984L350.495 15.472C350.922 14.1067 351.348 12.9547 351.775 12.016C352.244 11.0773 352.97 10.032 353.951 8.88C355.274 7.42933 356.874 6.36267 358.751 5.68C359.818 5.33867 360.906 5.168 362.015 5.168L363.167 5.232C364.02 5.40267 364.575 5.744 364.831 6.256C365.13 6.768 365.279 7.30133 365.279 7.856L365.215 8.688C364.916 9.712 364.276 10.608 363.295 11.376C362.015 12.4853 360.65 13.3387 359.199 13.936C356.852 15.0453 354.442 15.9627 351.967 16.688ZM400.661 18.672C401.813 18.5013 402.133 18.6507 401.621 19.12C399.658 20.0587 397.205 20.6133 394.261 20.784C391.317 20.912 388.757 20.5067 386.581 19.568C386.325 19.44 386.112 19.2693 385.941 19.056C385.77 18.8427 385.6 18.672 385.429 18.544C385.258 18.416 385.045 18.3947 384.789 18.48L384.021 18.864L380.821 20.336L377.685 21.744C377.642 21.744 377.6 21.7653 377.557 21.808C377.088 22.1067 376.49 22.2987 375.765 22.384C375.381 22.384 374.997 22.2773 374.613 22.064C374.229 21.8507 373.952 21.4667 373.781 20.912C373.781 20.4853 373.845 20.144 373.973 19.888C374.058 19.5893 374.165 19.3547 374.293 19.184C374.336 19.184 374.357 19.1627 374.357 19.12C374.613 18.6933 374.912 18.288 375.253 17.904C375.253 17.904 375.274 17.8827 375.317 17.84C376.085 17.072 376.938 16.4747 377.877 16.048C379.882 15.1093 381.973 14.9387 384.149 15.536C383.594 16.0053 383.082 16.56 382.613 17.2C381.077 16.9013 379.605 17.136 378.197 17.904C377.514 18.2453 376.917 18.6933 376.405 19.248C376.149 19.504 375.914 19.8027 375.701 20.144C375.53 20.3573 375.445 20.528 375.445 20.656H375.509C375.552 20.6987 375.594 20.7413 375.637 20.784C375.68 20.784 375.722 20.7627 375.765 20.72C375.978 20.7627 376.277 20.6987 376.661 20.528C376.789 20.4427 376.938 20.3787 377.109 20.336L383.637 17.52L384.085 17.392L384.597 17.136C385.237 16.9653 385.792 17.072 386.261 17.456C386.56 17.7973 386.752 18.032 386.837 18.16C386.88 18.2027 386.922 18.2453 386.965 18.288L387.413 18.672C389.077 19.5253 391.21 19.8667 393.813 19.696C396.416 19.4827 398.698 19.1413 400.661 18.672Z" fill="black"/>
</svg>
